<svg xmlns="http://www.w3.org/2000/svg" viewBox="0 0 100 100" width="1024" height="1024" role="img" aria-label="Export GPX app icon">
  <defs><clipPath id="sq"><circle cx="50" cy="50" r="50"/></clipPath></defs>
  <g clip-path="url(#sq)">
    <rect width="100" height="100" fill="#FC4C02" />
    <path d="M0 57 L22 53 C 30 53, 33 43, 41 45 C 47 46, 50 59, 58 52 C 64 47, 69 35, 77 33 L100 28 L100 100 L0 100 Z" fill="#5E9E2E" />
    <path d="M22 53 C 30 53, 33 43, 41 45 C 47 46, 50 59, 58 52 C 64 47, 69 35, 77 33" fill="none" stroke="#FFFFFF" stroke-width="6.5" stroke-linecap="round" stroke-linejoin="round" />
    <circle cx="22" cy="53" r="4.6" fill="#FFFFFF" />
    <circle cx="77" cy="33" r="4.6" fill="#FFFFFF" />
    <circle cx="72" cy="73.5" r="14.5" fill="#FFFFFF" />
    <g fill="none" stroke="#15191C" stroke-width="3.3" stroke-linecap="round" stroke-linejoin="round">
      <path d="M72 66.5 V76" /><path d="M66.8 71.6 L72 77 L77.2 71.6" /><path d="M66 80.5 H78" />
    </g>
  </g>
</svg>
