<svg xmlns="http://www.w3.org/2000/svg" width="1024" height="1024" viewBox="0 0 1024 1024" role="img" aria-label="GPX export app icon">
  
  <g transform="scale(10.24)">
    
    <rect width="100" height="100" fill="#FC4C02"></rect>
    
    <path d="M0 57 L22 53 C 30 53, 33 43, 41 45 C 47 46, 50 59, 58 52 C 64 47, 69 35, 77 33 L100 28 L100 100 L0 100 Z" fill="#5E9E2E"></path>
    
    <path d="M22 53 C 30 53, 33 43, 41 45 C 47 46, 50 59, 58 52 C 64 47, 69 35, 77 33" fill="none" stroke="#FFFFFF" stroke-width="6.5" stroke-linecap="round" stroke-linejoin="round"></path>
    <circle cx="22" cy="53" r="4.6" fill="#FFFFFF"></circle>
    <circle cx="77" cy="33" r="4.6" fill="#FFFFFF"></circle>
    
    <circle cx="72" cy="73.5" r="14.5" fill="#FFFFFF"></circle>
    <g fill="none" stroke="#15191C" stroke-width="3.3" stroke-linecap="round" stroke-linejoin="round">
      <path d="M72 66.5 V76"></path>
      <path d="M66.8 71.6 L72 77 L77.2 71.6"></path>
      <path d="M66 80.5 H78"></path>
    </g>
  </g>
</svg>